<svg xmlns="http://www.w3.org/2000/svg" xmlns:xlink="http://www.w3.org/1999/xlink" width="38" height="38" viewBox="0 0 38 38">
  <defs>
    <path id="logo-circle-a" d="M19,0 C29.4934102,-1.92760819e-15 38,8.50658975 38,19 C38,29.4934102 29.4934102,38 19,38 C8.50658975,38 1.28507213e-15,29.4934102 0,19 C-1.28507213e-15,8.50658975 8.50658975,1.92760819e-15 19,0 Z"/>
  </defs>
  <g fill="none" fill-rule="evenodd">
    <mask id="logo-circle-b" fill="#fff">
      <use xlink:href="#logo-circle-a"/>
    </mask>
    <use fill="#F2F2F2" xlink:href="#logo-circle-a"/>
    <g fill-rule="nonzero" mask="url(#logo-circle-b)">
      <g transform="translate(-19 -19)">
        <path fill="#FB594A" d="M71,0 C31.7877011,0 0,31.6033482 0,70.5882353 C0,71.6175597 0.0341028435,73.9813528 0.0780030696,75 L18.6775567,75 C18.6176413,73.9789179 18.5217391,71.624303 18.5217391,70.5882353 C18.5217391,41.773335 42.0170128,18.4143223 71,18.4143223 C99.9829872,18.4143223 123.478261,41.773335 123.478261,70.5882353 C123.478261,71.624303 123.382359,73.9789179 123.322443,75 L141.921997,75 C141.965897,73.9813528 142,71.6175597 142,70.5882353 C142,31.6033482 110.212299,0 71,0 Z"/>
        <path fill="#FFDE4B" d="M71,12.2762148 C38.6073051,12.2762148 12.3478261,38.3834019 12.3478261,70.5882353 C12.3478261,71.624303 12.449946,73.9772317 12.5036436,75 L31.025571,75 C30.9475683,73.9837881 30.8695652,71.624303 30.8695652,70.5882353 C30.8695652,48.5533887 48.8366168,30.6905371 71,30.6905371 C93.1633832,30.6905371 111.130435,48.5533887 111.130435,70.5882353 C111.130435,71.624303 111.052432,73.9837881 110.974429,75 L129.496356,75 C129.550054,73.9772317 129.652174,71.624303 129.652174,70.5882353 C129.652174,38.3834019 103.392695,12.2762148 71,12.2762148 Z"/>
        <path fill="#70E470" d="M71,24.5524297 C45.4267205,24.5524297 24.6956522,45.1632681 24.6956522,70.5882353 C24.6956522,71.624303 24.7836409,73.9809784 24.8514697,75 L43.3984561,75 C43.2861619,73.9910934 43.2173913,71.6269255 43.2173913,70.5882353 C43.2173913,55.3332549 55.6560323,42.9667519 71,42.9667519 C86.3439677,42.9667519 98.7826087,55.3332549 98.7826087,70.5882353 C98.7826087,71.6269255 98.7138381,73.9910934 98.6015439,75 L117.14853,75 C117.216359,73.9809784 117.304348,71.624303 117.304348,70.5882353 C117.304348,45.1632681 96.5732795,24.5524297 71,24.5524297 Z"/>
        <path fill="#33B7FF" d="M71,36.8286445 C52.2463246,36.8286445 37.0434783,51.9433218 37.0434783,70.5882353 C37.0434783,71.624303 37.1073502,73.9877217 37.1992958,75 L49.6368063,75 C49.4917283,73.9950273 49.3913043,71.6331072 49.3913043,70.5882353 C49.3913043,58.7231883 59.0659286,49.1048593 71,49.1048593 C82.9340714,49.1048593 92.6086957,58.7231883 92.6086957,70.5882353 C92.6086957,71.6331072 92.5082717,73.9950273 92.3631937,75 L104.800704,75 C104.89265,73.9877217 104.956522,71.624303 104.956522,70.5882353 C104.956522,51.9433218 89.7536754,36.8286445 71,36.8286445 Z"/>
      </g>
    </g>
  </g>
</svg>
