<svg xmlns="http://www.w3.org/2000/svg" width="20" height="20" viewBox="0 0 20 20">
  <path fill="#24292E" fill-rule="evenodd" d="M10.0412667,0 C4.51857003,0 0,4.61229762 0,10.2495503 C0,14.776435 2.84502557,18.6200163 6.86153226,19.986623 C7.3635956,20.0720359 7.53095004,19.7303843 7.53095004,19.4741455 C7.53095004,19.2179067 7.53095004,18.6200163 7.53095004,17.7658871 C4.76960169,18.3637776 4.18386114,16.3992804 4.18386114,16.3992804 C3.76547502,15.2034996 3.09605724,14.8618479 3.09605724,14.8618479 C2.09193057,14.2639574 3.09605724,14.2639574 3.09605724,14.2639574 C4.10018391,14.3493704 4.60224725,15.2889125 4.60224725,15.2889125 C5.5226967,16.826345 6.94520949,16.3992804 7.53095004,16.1430417 C7.61462727,15.4597383 7.86565894,15.0326737 8.20036783,14.776435 C5.94108281,14.5201962 3.59812058,13.666067 3.59812058,9.73707275 C3.59812058,8.6267048 4.01650669,7.6871627 4.60224725,7.00385934 C4.60224725,6.66220767 4.18386114,5.63725264 4.76960169,4.27064594 C4.76960169,4.27064594 5.60637392,4.01440719 7.53095004,5.29560097 C8.36772227,5.03936221 9.2044945,4.95394929 10.0412667,4.95394929 C10.878039,4.95394929 11.7148112,5.03936221 12.5515834,5.29560097 C14.4761595,3.92899427 15.3129318,4.27064594 15.3129318,4.27064594 C15.8986723,5.72266556 15.4802862,6.74762059 15.396609,7.00385934 C16.0660268,7.6871627 16.4007357,8.6267048 16.4007357,9.73707275 C16.4007357,13.666067 14.0577734,14.5201962 11.7984884,14.776435 C12.1331973,15.1180866 12.4679062,15.7159771 12.4679062,16.6555192 C12.4679062,18.0221259 12.4679062,19.1324938 12.4679062,19.4741455 C12.4679062,19.7303843 12.6352606,20.0720359 13.137324,19.986623 C17.1538307,18.6200163 19.9988562,14.776435 19.9988562,10.2495503 C20.0825335,4.61229762 15.5639634,0 10.0412667,0 Z"/>
</svg>
