<svg xmlns="http://www.w3.org/2000/svg" width="20" height="16" viewBox="0 0 20 16">
  <path fill="#FFF" d="M20,1.89401681 C19.264,2.21401616 18.474,2.43401572 17.644,2.53001552 C18.492,2.03001653 19.14,1.23801814 19.448,0.29602004 C18.6399289,0.766951501 17.7582367,1.09826156 16.84,1.27601806 C16.0594051,0.457824566 14.9768223,-0.00355578108 13.846,0 C11.58,0 9.744,1.81001698 9.744,4.04001247 C9.744,4.35601183 9.78,4.66401121 9.85,4.96001061 C6.56359987,4.80395213 3.49452413,3.27232096 1.394,0.740019142 C1.02912575,1.3542195 0.837020213,2.05561062 0.838,2.77001504 C0.838,4.17001221 1.564,5.4100097 2.664,6.13200824 C2.01289035,6.11158975 1.37572057,5.93825263 0.804,5.62600926 L0.804,5.67600916 C0.816740707,7.61209391 2.19481664,9.26980043 4.096,9.63600116 C3.49071533,9.79604817 2.85738291,9.81927719 2.242,9.70400102 C2.79184831,11.3596429 4.32960827,12.4856726 6.074,12.5099953 C4.6139256,13.6351089 2.82127909,14.2429753 0.978,14.2379919 C0.648,14.2379919 0.322,14.2179919 0,14.181992 C1.88094367,15.372565 4.0619252,16.0031337 6.288,16 C13.836,16 17.962,9.84400074 17.962,4.50401153 L17.948,3.98001259 C18.7525884,3.41457467 19.4478583,2.70778623 20,1.89401681 L20,1.89401681 Z"/>
</svg>
