<svg xmlns="http://www.w3.org/2000/svg" width="23" height="17" viewBox="0 0 23 17">
  <path fill="#F8FAFB" d="M11.6907099,0.0578178602 C12.6060128,0.0605977646 16.7071801,0.0845049419 19.5514615,0.290106667 C20.0010348,0.343730208 20.981381,0.348267917 21.8559848,1.26434354 C22.5455679,1.96230729 22.770321,3.54726604 22.770321,3.54726604 C22.770321,3.54726604 23,5.4085075 23,7.26974417 L23,7.26974417 L23,9.01466312 C23,10.8758806 22.7703258,12.7371221 22.7703258,12.7371221 C22.7703258,12.7371221 22.5455727,14.3220856 21.8559896,15.0200494 C20.9813858,15.936125 20.0010348,15.9406531 19.5514663,15.9942862 C16.5574858,16.2107047 12.1665218,16.232102 11.5684023,16.2340342 L11.4899859,16.2341208 C11.2176094,16.2315455 5.47631882,16.1754125 3.68008625,16.00317 C3.16820688,15.9071594 2.01894,15.936125 1.14401521,15.0200494 C0.4544225,14.3220904 0.230019167,12.7371221 0.230019167,12.7371221 C0.230019167,12.7371221 0,10.8758806 0,9.01466312 L0.000994600165,7.05509197 C0.0160444711,5.41104868 0.197244917,3.82302118 0.226140669,3.57945865 L0.230014375,3.54726604 C0.230014375,3.54726604 0.454417708,1.96230729 1.14401042,1.26434354 C2.01893521,0.348267917 2.99893167,0.343730208 3.44853375,0.290106667 C6.29290408,0.0845049419 10.3940069,0.0605977646 11.3092935,0.0578178602 Z M9.12446896,4.66678625 L9.12552313,11.1291777 L15.3391744,7.90924 L9.12446896,4.66678625 Z"/>
</svg>
