<svg xmlns="http://www.w3.org/2000/svg" width="18" height="19" viewBox="0 0 18 19">
  <path fill="#FFF" d="M18,0 L18,11.5155 L13.0909091,16.3636364 L9.40909091,16.3636364 L7.03390909,18.8181818 L4.50613636,18.8181818 L4.5,16.3636364 L0,16.3636364 L0,3.27272727 L1.27595455,0 L18,0 Z M16.3636364,1.63636364 L2.86363636,1.63636364 L2.86363636,13.5 L6.54545455,13.5 L6.54545455,15.9545455 L9,13.5 L13.5,13.5 L16.3636364,10.6363636 L16.3636364,1.63636364 Z M13.5,4.90909091 L13.5,9.81818182 L11.8636364,9.81818182 L11.8636364,4.90909091 L13.5,4.90909091 Z M9,4.90909091 L9,9.81818182 L7.36363636,9.81818182 L7.36363636,4.90909091 L9,4.90909091 Z"/>
</svg>
